<?xml version="1.0" encoding="UTF-8"?>
<svg version="1.1" xmlns="http://www.w3.org/2000/svg" width="3909" height="660">
<path d="M0 0 C1.06146744 -0.00101212 1.06146744 -0.00101212 2.14437866 -0.00204468 C39.56962025 0.05440365 76.29686271 11.2019286 106.75 33.25 C107.79929687 34.00152344 108.84859375 34.75304687 109.9296875 35.52734375 C148.25147944 63.84995449 172.74643452 106.24311227 181 152.8125 C185.04511622 180.69143046 183.28486992 209.36458541 174.75 236.25 C174.50797852 237.01586426 174.26595703 237.78172852 174.01660156 238.57080078 C158.98193136 284.92286316 125.18543984 322.25278683 82.28149414 344.62988281 C39.68555045 366.01038033 -10.61913532 368.86477301 -55.86328125 354.53125 C-81.19721153 346.00908491 -103.63482912 332.30396341 -123.25 314.25 C-123.7975293 313.74774902 -124.34505859 313.24549805 -124.90917969 312.72802734 C-157.3464337 282.59121954 -178.59920804 237.55274886 -180.37231445 193.18969727 C-181.66368242 139.03417236 -164.6361714 93.06567418 -128.05078125 53.06640625 C-94.16983017 18.9964401 -47.87064317 0.04113616 0 0 Z " fill="#77B32E" transform="translate(313.25,78.75)"/>
<path d="M0 0 C9.49936152 7.69241039 16.84394928 16.16047775 23.515625 26.359375 C23.53020752 25.25948242 23.54479004 24.15958984 23.55981445 23.02636719 C23.6178397 18.94091477 23.69507206 14.85601109 23.77807617 10.77099609 C23.81130569 9.00383417 23.83934382 7.23656661 23.86206055 5.46923828 C23.89564331 2.92695149 23.94795951 0.38563092 24.00390625 -2.15625 C24.01029617 -2.94493469 24.0166861 -3.73361938 24.02326965 -4.54620361 C24.11019537 -7.79794633 24.30417919 -10.24294528 25.84448242 -13.13989258 C28.52407009 -15.54623668 31.00662184 -15.13295317 34.515625 -15.078125 C35.753125 -15.07683594 36.990625 -15.07554687 38.265625 -15.07421875 C41.77590961 -14.60589953 42.43124684 -14.3342257 44.515625 -11.640625 C44.81063785 -8.72094107 44.92011449 -6.01448581 44.89657593 -3.09362793 C44.9012559 -2.21017244 44.90593587 -1.32671695 44.91075766 -0.41649008 C44.92276343 2.55647515 44.9132281 5.52898413 44.90380859 8.50195312 C44.90787228 10.62917857 44.91321301 12.7564019 44.91973877 14.88362122 C44.93345553 20.67590918 44.92809224 26.46803741 44.91860151 32.26032829 C44.91101169 38.3306611 44.91805011 44.40098013 44.92276001 50.47131348 C44.92822619 60.68386283 44.92101031 70.89634723 44.90673828 81.10888672 C44.89047999 92.87778813 44.89564696 104.64653306 44.9122175 116.41543055 C44.92589155 126.53546301 44.92772115 136.65544869 44.91990149 146.77548742 C44.91524835 152.8117818 44.91453324 158.84800306 44.92451096 164.8842926 C44.93326211 170.5773659 44.92701184 176.27024091 44.90982819 181.96329308 C44.90590341 184.03873556 44.90692737 186.11419509 44.91361618 188.18963051 C44.96056976 204.25724669 44.2428569 220.59137913 38.703125 235.859375 C38.44305664 236.60018311 38.18298828 237.34099121 37.91503906 238.10424805 C29.85767195 260.35434173 14.1557264 276.52912771 -6.86328125 287.05078125 C-43.49918954 303.68073279 -88.61600534 299.72169398 -125.546875 286.234375 C-126.2083252 285.99291748 -126.86977539 285.75145996 -127.55126953 285.50268555 C-130.75982331 284.26048652 -133.43407616 283.19768905 -135.484375 280.359375 C-136.35235043 274.8260316 -134.85769912 271.55106355 -132.06640625 266.9609375 C-129.8734503 264.74090802 -128.6005692 264.48278863 -125.484375 264.359375 C-123.04912422 265.13795277 -120.82167582 265.980489 -118.484375 266.984375 C-88.12863926 279.14092081 -50.83019666 282.78209625 -20.1171875 270.03125 C-14.8635822 267.61346176 -10.14271738 264.77654015 -5.484375 261.359375 C-4.85402344 260.91207031 -4.22367188 260.46476562 -3.57421875 260.00390625 C12.33591537 247.64546494 19.42339102 226.66359873 21.87667847 207.40429688 C23.05111834 196.93573586 22.72534493 186.37583534 22.640625 175.859375 C22.63056823 173.66797287 22.62144718 171.47656624 22.61328125 169.28515625 C22.59149742 163.97646237 22.55823653 158.66794048 22.515625 153.359375 C21.6194043 154.7817749 21.6194043 154.7817749 20.70507812 156.23291016 C19.90254533 157.49654732 19.09979959 158.76004926 18.296875 160.0234375 C17.90532227 160.64613525 17.51376953 161.26883301 17.11035156 161.91040039 C13.47347963 167.61639802 9.29852686 172.56809678 4.515625 177.359375 C3.83113281 178.05546875 3.14664062 178.7515625 2.44140625 179.46875 C-9.85652745 191.19838732 -27.68967013 199.14120643 -44.484375 201.359375 C-45.26683594 201.46894531 -46.04929687 201.57851563 -46.85546875 201.69140625 C-75.12473716 205.08371846 -105.7131255 199.10376376 -128.484375 181.359375 C-151.796633 162.10628014 -165.07550753 136.32067609 -168.484375 106.359375 C-168.79493533 101.17101059 -168.87470562 95.99317926 -168.859375 90.796875 C-168.85883118 90.09860596 -168.85828735 89.40033691 -168.85772705 88.6809082 C-168.7472846 57.70400945 -158.56931247 29.40171342 -136.546875 7.046875 C-100.75317149 -28.15719266 -39.51562235 -30.73437294 0 0 Z M-123.7421875 22.27734375 C-142.60287475 44.81713367 -149.13164476 72.21813108 -147.01953125 101.1796875 C-144.66029077 126.77387212 -133.9911693 149.89146457 -114.5234375 166.97265625 C-97.35399526 180.45662696 -76.14354815 185.77385161 -54.484375 184.359375 C-31.24561451 181.32410832 -10.71203288 170.58733776 3.63916016 151.95068359 C16.79496955 133.99173094 22.9381302 112.26877572 22.828125 90.171875 C22.81966553 88.38849731 22.81966553 88.38849731 22.81103516 86.5690918 C22.48703065 63.0178135 15.14864387 41.20011028 -0.484375 23.359375 C-1.07734375 22.67101562 -1.6703125 21.98265625 -2.28125 21.2734375 C-10.87896602 11.97761634 -22.5697052 5.3802065 -34.484375 1.359375 C-35.62648438 0.9675 -36.76859375 0.575625 -37.9453125 0.171875 C-67.89933567 -8.72169064 -102.07918108 -0.68129702 -123.7421875 22.27734375 Z " fill="#FFFFFF" transform="translate(1056.484375,245.640625)"/>
<path d="M0 0 C1.216875 -0.02191406 2.43375 -0.04382813 3.6875 -0.06640625 C7 0.5625 7 0.5625 9.17459488 2.66323376 C11.42679984 6.24038041 11.50648096 8.36996169 11.51898193 12.57966614 C11.52648319 13.27405861 11.53398444 13.96845108 11.541713 14.68388575 C11.56196779 17.00416266 11.55389245 19.32346029 11.54589844 21.64379883 C11.55463471 23.30954961 11.56512068 24.97529201 11.57722473 26.64102173 C11.60509891 31.1592433 11.60848911 35.67719123 11.60750484 40.19548631 C11.61063273 44.91877266 11.63624834 49.64193556 11.65948486 54.36515808 C11.70005794 63.30752167 11.72038865 72.24981231 11.73345876 81.19225377 C11.74932437 91.37361996 11.78773815 101.55486194 11.82805204 111.73615611 C11.91046889 132.67822978 11.96454986 153.62029763 12 174.5625 C12.61220901 173.87407013 13.22441803 173.18564026 13.85517883 172.47634888 C14.6613414 171.57423676 15.46750397 170.67212463 16.2980957 169.74267578 C17.49484673 168.40065598 17.49484673 168.40065598 18.71577454 167.03152466 C32.61521394 152.00758802 53.85715149 141.66449867 74 138.5625 C74.68578125 138.45292969 75.3715625 138.34335938 76.078125 138.23046875 C100.46977745 134.94022786 125.57843839 140.50328535 145.8046875 154.50390625 C148.30505034 156.43175611 150.66052341 158.44284 153 160.5625 C153.83015625 161.29984375 154.6603125 162.0371875 155.515625 162.796875 C172.42227968 178.6663116 182.26181384 202.23516125 183.10068703 225.3351059 C183.15089396 228.64002466 183.16941348 231.94372974 183.17700195 235.24902344 C183.18357315 236.50197708 183.19014435 237.75493073 183.19691467 239.04585266 C183.21654782 243.17119596 183.2282905 247.2965007 183.23828125 251.421875 C183.24233311 252.84699776 183.24645015 254.27212035 183.25063133 255.69724274 C183.26963342 262.38530199 183.28388325 269.07335046 183.2922433 275.76143146 C183.30204299 283.47186898 183.32845387 291.18202153 183.36874419 298.89235854 C183.39887522 304.86366067 183.41370868 310.8348808 183.41702431 316.80625749 C183.4193752 320.36891027 183.42834263 323.93125679 183.45348549 327.49382782 C183.48103624 331.46049752 183.47694437 335.42678789 183.4699707 339.39355469 C183.48918579 341.1624984 183.48918579 341.1624984 183.50878906 342.96717834 C183.49837334 344.58622322 183.49837334 344.58622322 183.48774719 346.23797607 C183.49013555 347.17518871 183.4925239 348.11240135 183.49498463 349.07801437 C182.84408746 352.34507475 181.59549715 353.5347762 179 355.5625 C175.6875 356.09375 175.6875 356.09375 172 356.0625 C170.1746875 356.07796875 170.1746875 356.07796875 168.3125 356.09375 C164.37614946 355.4624485 163.44144375 354.63534976 161 351.5625 C160.50336456 349.10594749 160.50336456 349.10594749 160.50793457 346.30526733 C160.4998024 345.24035568 160.49167023 344.17544403 160.48329163 343.07826233 C160.49460617 341.91467697 160.50592072 340.75109161 160.51757812 339.55224609 C160.51170937 337.70742393 160.51170937 337.70742393 160.50572205 335.82533264 C160.49973693 333.14963092 160.50094004 330.47504884 160.5141449 327.79948044 C160.53454156 323.55146022 160.5244736 319.3038409 160.5098877 315.05581665 C160.48086408 305.25317511 160.49151271 295.45065096 160.50258636 285.64798737 C160.51230599 276.69812989 160.51324659 267.74848502 160.48270559 258.79866278 C160.47163174 255.27685131 160.46872021 251.75544998 160.4858551 248.23365402 C160.60548821 222.93747489 158.85046883 199.84574014 141.46875 180.0234375 C127.06709469 165.66735705 108.17210745 158.27394767 88 158.0625 C65.70031008 158.33790943 45.87370904 167.60898595 29.703125 182.70703125 C12.02284928 201.17538128 11.41614951 222.41441047 11.55715299 246.57339144 C11.57281227 250.21720051 11.56163417 253.86091431 11.55223083 257.50473022 C11.52918953 268.30430645 11.54753186 279.10376296 11.57373047 289.90332031 C11.59368729 298.33223847 11.60226989 306.76084395 11.57679409 315.18976247 C11.56500331 319.51650604 11.57656771 323.84235361 11.6060468 328.16900373 C11.62241864 331.48466384 11.60659256 334.80004225 11.59594727 338.11572266 C11.61085709 339.30847809 11.62576691 340.50123352 11.64112854 341.73013306 C11.56328715 350.70300287 11.56328715 350.70300287 8.64634705 353.79891968 C5.51719994 355.88424793 3.74068158 356.23521278 0 356.1875 C-1.010625 356.20039063 -2.02125 356.21328125 -3.0625 356.2265625 C-6.06686768 355.54738364 -7.82931787 354.74508947 -9.94828594 352.49037087 C-12.48241148 347.84512841 -11.67581441 342.01140196 -11.62818909 336.85264587 C-11.63323417 335.42399138 -11.64046271 333.9953432 -11.64968723 332.56670958 C-11.6686422 328.64057189 -11.65635796 324.71505579 -11.6389643 320.78893363 C-11.62561057 316.55506127 -11.64102013 312.32128107 -11.65278625 308.0874176 C-11.67118169 299.79347294 -11.66263809 291.49976359 -11.64469803 283.20582622 C-11.63068297 276.46683172 -11.62677687 269.72790118 -11.6301403 262.98889351 C-11.63085647 261.55122954 -11.63085647 261.55122954 -11.6315871 260.08452185 C-11.63261341 258.13759043 -11.63366877 256.19065902 -11.63475286 254.24372763 C-11.64332366 237.02173156 -11.62663211 219.79984925 -11.59692383 202.57788086 C-11.56808101 185.85745465 -11.56100452 169.13719231 -11.57641602 152.41674805 C-11.59316696 134.21810836 -11.59722404 116.0195465 -11.57970566 97.82090479 C-11.57786122 95.88136678 -11.5760265 93.94182876 -11.57420158 92.00229073 C-11.57328949 91.04794636 -11.5723774 90.09360199 -11.57143768 89.1103381 C-11.56582574 82.37700649 -11.56914553 75.64371279 -11.57574654 68.91038322 C-11.5834681 60.70825471 -11.57676958 52.50628767 -11.5515715 44.30419176 C-11.53904953 40.11735489 -11.53296243 35.93076974 -11.54411316 31.74392319 C-11.55412102 27.91396662 -11.54577057 24.0845131 -11.52253198 20.254618 C-11.51735349 18.86642324 -11.51896895 17.47818376 -11.52792663 16.09000825 C-11.53906332 14.20813613 -11.52333763 12.32616164 -11.50615788 10.44433498 C-11.50496639 9.39749835 -11.50377491 8.35066172 -11.50254732 7.27210277 C-10.29835791 0.77943072 -5.91964512 -0.00627081 0 0 Z " fill="#FFFFFF" transform="translate(1190,86.4375)"/>
<path d="M0 0 C22.57155664 20.38721245 35.8940138 48.80584329 37.80249023 79.15527344 C37.83213867 80.00605469 37.86178711 80.85683594 37.89233398 81.73339844 C37.93229492 82.70792969 37.97225586 83.68246094 38.01342773 84.68652344 C38.71420732 118.15905443 26.6897159 148.23254699 3.70483398 172.29589844 C-18.44509968 193.83310918 -48.59724575 204.41709595 -79.31738281 204.08447266 C-105.43375021 203.26592131 -131.37124848 195.34540992 -151.10766602 177.73339844 C-151.91204102 177.07082031 -152.71641602 176.40824219 -153.54516602 175.72558594 C-175.56827162 157.07476838 -187.94129362 129.53666922 -190.90917969 101.15234375 C-193.48249224 69.79148183 -186.41277649 38.69306439 -166.67407227 13.70214844 C-145.45214639 -10.84680692 -118.46785922 -25.58007388 -85.90063477 -28.10644531 C-54.29353869 -29.91888019 -24.04523871 -20.88572871 0 0 Z M-139.10766602 7.73339844 C-139.80118164 8.29671875 -140.49469727 8.86003906 -141.20922852 9.44042969 C-159.83920619 24.79757345 -171.59266377 49.91205644 -174.10766602 73.73339844 C-174.86148382 89.72875683 -175.03193002 105.38348569 -170.10766602 120.73339844 C-169.78620605 121.7659375 -169.78620605 121.7659375 -169.45825195 122.81933594 C-161.28668781 148.41643351 -143.64273235 168.33919385 -120.06054688 180.88061523 C-97.12728335 192.52321652 -70.42241178 193.71485272 -46.07788086 185.89379883 C-34.0617755 181.7968043 -23.96748989 175.66972364 -14.10766602 167.73339844 C-13.05579102 166.94964844 -12.00391602 166.16589844 -10.92016602 165.35839844 C8.48091556 147.2507223 20.19565707 120.83824286 21.13061523 94.40527344 C21.72404668 62.73153808 12.71296407 35.34952462 -9.35766602 12.04589844 C-26.03466132 -3.89964971 -48.80643754 -14.65798739 -72.10766602 -15.26660156 C-73.11313477 -15.32460937 -73.11313477 -15.32460937 -74.13891602 -15.38378906 C-97.57841178 -16.17093631 -121.61142293 -7.83636301 -139.10766602 7.73339844 Z " fill="#FFFFFF" transform="translate(3640.107666015625,245.2666015625)"/>
<path d="M0 0 C8.06686194 7.67055018 13.04171097 15.15886761 16.75 25.6875 C16.98589844 26.35265625 17.22179688 27.0178125 17.46484375 27.703125 C22.66161334 45.15213238 19.52124897 64.7284256 11.25390625 80.55078125 C2.69980157 95.05378367 -10.80884941 105.31077911 -26.25 111.6875 C-27.90754387 112.06358138 -29.57329286 112.40903627 -31.25 112.6875 C-24.0099094 122.59291751 -16.70775655 132.44462434 -9.25 142.1875 C-3.59992239 149.56933724 1.95988339 157.00881704 7.44995117 164.51025391 C11.90984885 170.58818751 16.47425018 176.5810829 21.0625 182.5625 C37.75 204.34718571 37.75 204.34718571 37.75 206.6875 C21.40577946 209.18068618 21.40577946 209.18068618 15.75244141 205.32519531 C11.91811399 201.44225005 9.12624277 196.81641379 6.30517578 192.17236328 C3.71843238 188.03925899 0.74585249 184.20301341 -2.1875 180.3125 C-3.36579183 178.71278366 -4.54156389 177.11120838 -5.71484375 175.5078125 C-9.21858973 170.72848249 -12.73317426 165.95721027 -16.25 161.1875 C-19.80146234 156.37053972 -23.35061879 151.55195065 -26.890625 146.7265625 C-28.09356694 145.08840723 -29.29668961 143.45038465 -30.5 141.8125 C-31.07766113 141.02560791 -31.65532227 140.23871582 -32.25048828 139.42797852 C-36.57815069 133.55172209 -41.02258078 127.77837474 -45.5546875 122.05859375 C-47.25 119.6875 -47.25 119.6875 -47.25 117.6875 C-48.18440918 117.79360596 -48.18440918 117.79360596 -49.13769531 117.90185547 C-57.10315129 118.72442252 -64.99701419 118.83707416 -73 118.8125 C-74.27488281 118.81636719 -75.54976562 118.82023438 -76.86328125 118.82421875 C-78.71759766 118.82228516 -78.71759766 118.82228516 -80.609375 118.8203125 C-81.71764648 118.81918457 -82.82591797 118.81805664 -83.96777344 118.81689453 C-87.41311939 118.68106938 -90.83663215 118.17512398 -94.25 117.6875 C-94.25 147.0575 -94.25 176.4275 -94.25 206.6875 C-99.53 206.6875 -104.81 206.6875 -110.25 206.6875 C-110.25 133.7575 -110.25 60.8275 -110.25 -14.3125 C-76.68625254 -22.70343687 -27.70858399 -23.95855007 0 0 Z M-94.25 -2.3125 C-94.34535213 -0.94641674 -94.3718867 0.42455455 -94.37025452 1.79396057 C-94.37162918 2.67882141 -94.37300385 3.56368225 -94.37442017 4.47535706 C-94.37082489 5.45358932 -94.36722961 6.43182159 -94.36352539 7.43969727 C-94.36367142 8.4639682 -94.36381744 9.48823914 -94.3639679 10.54354858 C-94.36326828 13.94702229 -94.35547363 17.35044204 -94.34765625 20.75390625 C-94.34579224 23.10660268 -94.34436826 25.4592995 -94.34336853 27.81199646 C-94.33954199 34.01806705 -94.32971055 40.2241144 -94.31866455 46.43017578 C-94.30845334 52.75748378 -94.30387154 59.08479552 -94.29882812 65.41210938 C-94.2880884 77.83724982 -94.27101036 90.26237298 -94.25 102.6875 C-79.87879578 109.87310211 -53.50788676 105.18774704 -38.70703125 100.5859375 C-22.55741989 94.71679386 -9.32215962 86.29510649 -1.25 70.6875 C4.7776376 56.88641514 5.89699431 42.00197097 0.75 27.6875 C-5.40016797 13.41374568 -15.6393934 5.60343889 -29.8125 -0.0625 C-41.11243872 -4.19565461 -52.20052137 -5.51016611 -64.1875 -5.5 C-65.53763184 -5.49987915 -65.53763184 -5.49987915 -66.91503906 -5.49975586 C-81.38278475 -6.17326624 -81.38278475 -6.17326624 -94.25 -2.3125 Z " fill="#FFFFFF" transform="translate(2967.25,237.3125)"/>
<path d="M0 0 C1.01513672 -0.01740234 1.01513672 -0.01740234 2.05078125 -0.03515625 C4.72095933 -0.01935638 6.88977753 -0.0050978 9.19551086 1.43110657 C11.19008285 4.40333169 10.89245333 7.41958042 10.84057617 10.87573242 C10.84123329 12.0175573 10.84123329 12.0175573 10.84190369 13.18244934 C10.83981353 15.69871666 10.81647235 18.21431782 10.79296875 20.73046875 C10.78737359 22.47495662 10.78310311 24.21944921 10.78010559 25.96394348 C10.76865049 30.55570487 10.73917765 35.14718164 10.70599365 39.73883057 C10.67530707 44.42415517 10.66160328 49.10952575 10.64648438 53.79492188 C10.61430854 62.98840631 10.56310418 72.18167949 10.5 81.375 C11.35777542 81.36833817 12.21555084 81.36167633 13.09931946 81.35481262 C21.17751797 81.29473638 29.25564161 81.24904339 37.33401203 81.21956348 C41.48733857 81.20389811 45.64048075 81.18264418 49.79370117 81.14868164 C53.80075585 81.1161189 57.80763304 81.09815355 61.8148098 81.09036827 C63.34466535 81.08481918 64.87451103 81.07398324 66.40429115 81.05780983 C68.54488855 81.03607585 70.68474973 81.03303128 72.82543945 81.03442383 C74.04455521 81.02776199 75.26367096 81.02110016 76.51972961 81.01423645 C79.5 81.375 79.5 81.375 81.39445496 82.72050476 C83.07949595 85.24224036 82.86017583 87.38242496 82.8125 90.375 C82.80863281 91.426875 82.80476563 92.47875 82.80078125 93.5625 C82.5 96.375 82.5 96.375 80.5 99.375 C77.12021442 100.50159519 74.57183864 100.49520983 71.0090332 100.48852539 C70.02814224 100.48874443 70.02814224 100.48874443 69.0274353 100.4889679 C66.86851674 100.48827188 64.70968472 100.48049408 62.55078125 100.47265625 C61.05291287 100.47079096 59.55504389 100.46936758 58.05717468 100.46836853 C54.11654981 100.46455207 50.17596186 100.4547292 46.23535156 100.44366455 C42.21354675 100.43343172 38.19173596 100.4288669 34.16992188 100.42382812 C26.27993099 100.41310616 18.38997009 100.39604017 10.5 100.375 C10.58413003 117.49160644 10.67934674 134.60811124 10.78752708 151.72458172 C10.83750991 159.67322073 10.88395363 167.62185017 10.921875 175.57055664 C10.95496157 182.50391448 10.99488288 189.4371947 11.04279006 196.37046653 C11.06789063 200.03679096 11.08971899 203.703065 11.10334396 207.36945152 C11.11873514 211.47647505 11.14939503 215.58325591 11.18115234 219.69018555 C11.18331253 220.88709518 11.18547272 222.08400482 11.18769836 223.31718445 C11.33153113 237.9659382 12.67005411 254.40065483 23.5 265.375 C28.93232244 269.88485259 34.67883126 272.64481304 41.5 274.375 C42.22832031 274.56191406 42.95664063 274.74882812 43.70703125 274.94140625 C47.62556526 275.5497381 51.4783808 275.5193916 55.4375 275.5 C56.22318359 275.50386719 57.00886719 275.50773437 57.81835938 275.51171875 C62.16863273 275.50443796 66.21030413 275.17394049 70.5 274.375 C72.05936705 274.2456745 73.62312237 274.15776184 75.1875 274.125 C75.93386719 274.09921875 76.68023438 274.0734375 77.44921875 274.046875 C79.5 274.375 79.5 274.375 81.20703125 275.5859375 C83.73692875 279.08652075 83.78193639 283.17280523 83.5 287.375 C81.875 290.375 81.875 290.375 78.5 292.375 C69.59988806 294.43915818 60.59614232 294.71259973 51.5 294.6875 C49.74816406 294.71166992 49.74816406 294.71166992 47.9609375 294.73632812 C31.33914609 294.74554198 16.82092213 290.38609872 4.68359375 278.71484375 C-7.99029917 265.13405331 -10.82528273 247.92480032 -10.72705078 230.02099609 C-10.72648551 228.60081999 -10.72680549 227.1806433 -10.72793579 225.76046753 C-10.72850578 221.93468321 -10.71680936 218.10902624 -10.70278788 214.28327131 C-10.69022097 210.27411018 -10.68910534 206.26494561 -10.68673706 202.25576782 C-10.68053971 194.67705593 -10.6641527 187.09840225 -10.64403808 179.51971591 C-10.62162453 170.886041 -10.61067197 162.2523632 -10.60064721 153.61866641 C-10.57978479 135.87074469 -10.54464301 118.12287704 -10.5 100.375 C-11.69077148 100.39071045 -12.88154297 100.4064209 -14.10839844 100.42260742 C-18.52890247 100.47693287 -22.94937702 100.51135963 -27.37011719 100.53979492 C-29.28292809 100.55487558 -31.19570446 100.5753431 -33.10839844 100.60131836 C-35.8588107 100.63773347 -38.60876554 100.65473349 -41.359375 100.66796875 C-42.21368103 100.68345261 -43.06798706 100.69893646 -43.94818115 100.71488953 C-49.85610183 100.71656179 -49.85610183 100.71656179 -53.00878906 99.04418945 C-56.10613336 95.57717195 -55.72858567 91.79432286 -55.5 87.375 C-54.0483871 82.9233871 -54.0483871 82.9233871 -52.5 81.375 C-49.39748799 81.28625865 -46.3173188 81.25981545 -43.21484375 81.27734375 C-42.28402481 81.2787587 -41.35320587 81.28017365 -40.3941803 81.28163147 C-37.40858809 81.28724828 -34.42306971 81.2998036 -31.4375 81.3125 C-29.41862087 81.31751284 -27.39974057 81.32207612 -25.38085938 81.32617188 C-20.42054428 81.33722317 -15.46028468 81.35449905 -10.5 81.375 C-10.50666183 80.40447189 -10.51332367 79.43394379 -10.52018738 78.43400574 C-10.58095189 69.29625059 -10.62595017 60.15853632 -10.65543652 51.02062511 C-10.67110528 46.32250244 -10.69236555 41.62454261 -10.72631836 36.92651367 C-10.75886877 32.39426888 -10.77684389 27.86218091 -10.78463173 23.32982826 C-10.79018302 21.59901777 -10.80102313 19.86821604 -10.81719017 18.13747215 C-10.83890737 15.71670224 -10.84196937 13.29658377 -10.84057617 10.87573242 C-10.851362 10.15716064 -10.86214783 9.43858887 -10.8732605 8.69824219 C-10.85536537 5.83246453 -10.81784882 3.8486446 -9.19551086 1.43110657 C-6.34420491 -0.34492626 -3.25037294 -0.05572068 0 0 Z " fill="#FFFFFF" transform="translate(1471.5,149.625)"/>
<path d="M0 0 C2.27921161 0.00316794 4.55712794 -0.02045922 6.83618164 -0.0456543 C30.72640262 -0.14861418 55.16509154 5.53360345 72.84204102 22.59301758 C85.81012612 36.69403992 90.77318953 54.15340475 90.32250977 73.06787109 C89.48771953 92.05734226 82.73276134 108.73115526 68.86694336 121.94750977 C43.23159418 145.00697956 10.13148688 144.31567383 -22.65405273 144.31567383 C-22.98405273 171.04567383 -23.31405273 197.77567383 -23.65405273 225.31567383 C-28.93405273 225.31567383 -34.21405273 225.31567383 -39.65405273 225.31567383 C-39.65405273 152.38567383 -39.65405273 79.45567383 -39.65405273 4.31567383 C-26.42040917 1.00726294 -13.58003516 -0.03924446 0 0 Z M-23.65405273 16.31567383 C-23.65405273 53.60567383 -23.65405273 90.89567383 -23.65405273 129.31567383 C1.21137403 134.28875918 30.02446654 129.74464079 51.60375977 116.26489258 C62.85347094 108.26830301 70.53313387 96.83647826 73.84594727 83.37817383 C76.127242 66.79705599 74.49496017 50.14186532 64.34594727 36.31567383 C63.83290039 35.60926758 63.31985352 34.90286133 62.79125977 34.17504883 C52.64414683 21.45474458 36.02242005 16.17022476 20.34594727 14.31567383 C15.53000508 14.09847103 10.73125259 14.06823807 5.91137695 14.10986328 C3.717574 14.12820203 1.52419427 14.13037159 -0.66967773 14.13012695 C-12.49384119 13.58876955 -12.49384119 13.58876955 -23.65405273 16.31567383 Z " fill="#FFFFFF" transform="translate(2296.654052734375,218.684326171875)"/>
<path d="M0 0 C1 1 1 1 1.3125 4.5625 C1.2696428 9.31107765 -0.33570914 13.1008006 -3 17 C-7.96965781 19.4848289 -15.53680417 16.65999361 -20.6875 15.4375 C-34.80173048 12.37182843 -47.4784308 13.56962817 -60.1875 20.6875 C-73.33714046 29.26242735 -83.65894514 41.70577851 -88 57 C-88.54863939 61.91641217 -88.52498649 66.8095685 -88.48242188 71.74951172 C-88.48461188 73.21246199 -88.4886149 74.67541049 -88.49427795 76.13835144 C-88.50279355 79.26876549 -88.49913051 82.39883536 -88.4858551 85.52923203 C-88.46541506 90.47957207 -88.4755381 95.42956963 -88.4901123 100.37991333 C-88.51678379 110.87830694 -88.51014137 121.37658709 -88.5 131.875 C-88.48904541 143.23154889 -88.48378377 154.58792058 -88.51729441 165.94443905 C-88.53067101 170.86591218 -88.52470643 175.78686764 -88.50392914 180.70830989 C-88.49495579 183.76450845 -88.5024046 186.82050642 -88.51434135 189.876688 C-88.51647503 191.29407362 -88.51173409 192.71148865 -88.4996357 194.12882423 C-88.48405931 196.06237439 -88.49530227 197.99608535 -88.50793457 199.92965698 C-88.50567242 201.5528098 -88.50567242 201.5528098 -88.50336456 203.20875359 C-89.12348962 206.69405029 -90.21624247 207.87400864 -93 210 C-96.09375 210.49609375 -96.09375 210.49609375 -99.5 210.4375 C-100.6240625 210.43621094 -101.748125 210.43492187 -102.90625 210.43359375 C-106.42084858 209.94101743 -107.59801541 209.58838686 -110 207 C-110.39841407 204.16467895 -110.53584364 201.71445486 -110.50120544 198.87683105 C-110.50673984 198.03925624 -110.51227424 197.20168143 -110.51797634 196.33872557 C-110.53162992 193.52174251 -110.51658837 190.70563827 -110.50170898 187.88867188 C-110.50549045 185.87341433 -110.51098907 183.85815938 -110.51808167 181.84291077 C-110.53207598 176.36154691 -110.52083858 170.88049554 -110.50437045 165.39914894 C-110.49054986 159.67100383 -110.49697661 153.94287743 -110.50050354 148.21472168 C-110.50320803 138.59410549 -110.48970948 128.97361389 -110.46655273 119.35302734 C-110.43994154 108.22000024 -110.43819504 97.08718151 -110.4499411 85.95413351 C-110.46070906 75.25777099 -110.45453952 64.56148407 -110.44038582 53.86512756 C-110.43461749 49.30695312 -110.43471534 44.74883384 -110.43945122 40.19065857 C-110.44421299 34.82592777 -110.43415252 29.46142602 -110.41249657 24.09673882 C-110.4069176 22.12423411 -110.40647351 20.15170744 -110.41144943 18.17920113 C-110.41737609 15.4936003 -110.40494784 12.80870597 -110.38768005 10.12316895 C-110.3936901 9.33630943 -110.39970014 8.54944991 -110.40589231 7.73874617 C-110.34441293 2.50699536 -110.34441293 2.50699536 -108.65155125 0.01500702 C-106.11543899 -1.54363171 -103.94179757 -1.35936687 -101 -1.3125 C-99.4221875 -1.30669922 -99.4221875 -1.30669922 -97.8125 -1.30078125 C-95 -1 -95 -1 -92 1 C-91.56762695 3.88916016 -91.56762695 3.88916016 -91.48828125 7.5390625 C-91.43510742 9.49199219 -91.43510742 9.49199219 -91.38085938 11.484375 C-91.35775769 12.86457809 -91.33497536 14.24478657 -91.3125 15.625 C-91.27933555 17.01305352 -91.2448467 18.40107607 -91.20898438 19.7890625 C-91.12625885 23.19262707 -91.05718743 26.5959259 -91 30 C-90.61400635 29.33685791 -90.2280127 28.67371582 -89.83032227 27.99047852 C-80.2345994 11.71326734 -65.934976 -0.21970015 -47.6875 -5.8125 C-31.77372588 -9.41523023 -14.25656997 -8.06975658 0 0 Z " fill="#FFFFFF" transform="translate(737,232)"/>
<path d="M0 0 C1.43766491 -0.00397878 2.87560788 0.01910642 4.3125 0.06640625 C5.03695312 0.05544922 5.76140625 0.04449219 6.5078125 0.03320312 C11.72693926 0.10542351 11.72693926 0.10542351 14.01873875 2.15425873 C15.84584346 5.64906129 15.73002113 8.93924607 15.70018005 12.78967285 C15.70556559 13.61922942 15.71095113 14.44878598 15.71649987 15.30348063 C15.73082412 18.0872363 15.72366479 20.87051945 15.71655273 23.65429688 C15.72225392 25.64837528 15.7292172 27.64245042 15.73735046 29.63652039 C15.75532359 35.05584764 15.75410581 40.47501336 15.74840808 45.8943615 C15.74532259 50.41500918 15.75140146 54.93562555 15.75744683 59.45626879 C15.77150375 70.11817042 15.76992071 80.77999195 15.75854492 91.44189453 C15.74705891 102.45055181 15.76114492 113.45896561 15.7879414 124.46759081 C15.81007237 133.91225927 15.81674176 143.35685115 15.81086498 152.80154371 C15.80748841 158.44558001 15.80995705 164.08946017 15.82711601 169.73347473 C15.84254187 175.03916061 15.83867811 180.34448467 15.81981087 185.65015602 C15.81611306 187.59967287 15.81926796 189.54921627 15.82969666 191.49870872 C15.84282681 194.15560735 15.83143062 196.811294 15.81370544 199.46813965 C15.82331045 200.24362231 15.83291546 201.01910497 15.84281152 201.8180871 C15.79478927 205.30503694 15.58025489 207.26883005 13.47233677 210.10355377 C10.52766913 212.18318134 8.45515635 212.19554516 4.875 212.19140625 C3.76253906 212.21332031 2.65007813 212.23523438 1.50390625 212.2578125 C-2.74314214 211.42087885 -4.02354961 210.01449252 -6.6875 206.62890625 C-7.17597826 203.69909448 -7.35685683 201.35422943 -7.30895996 198.43054199 C-7.31534878 197.60900367 -7.3217376 196.78746535 -7.32832003 195.94103193 C-7.34357258 193.19000903 -7.32310758 190.44042572 -7.30273438 187.68945312 C-7.3062355 185.71655297 -7.31189397 183.74365563 -7.31954956 181.77076721 C-7.33380839 176.41327323 -7.31672504 171.05629181 -7.29326439 165.69884682 C-7.27317197 160.09443976 -7.27903411 154.49005433 -7.28137207 148.88562012 C-7.28131848 139.47362809 -7.26155112 130.0618367 -7.22949219 120.64990234 C-7.19259871 109.7656666 -7.18381648 98.88169373 -7.1907897 87.99740362 C-7.19709317 77.53062735 -7.18634327 67.0639413 -7.16682434 56.59718323 C-7.15864583 52.14114599 -7.15594163 47.68515484 -7.15751648 43.22911072 C-7.1583949 37.9825244 -7.14419055 32.73618823 -7.11828995 27.48966789 C-7.1111228 25.56315765 -7.10904715 23.63662081 -7.11240768 21.71010017 C-7.11611751 19.08221817 -7.10139237 16.45506815 -7.08190918 13.82727051 C-7.08723711 13.06316471 -7.09256503 12.2990589 -7.09805441 11.51179838 C-7.02052033 5.45886367 -6.45838167 1.10148247 0 0 Z " fill="#FFFFFF" transform="translate(805.6875,230.37109375)"/>
<path d="M0 0 C1.2890625 -0.01675781 2.578125 -0.03351563 3.90625 -0.05078125 C7.78048156 0.34085303 9.5007948 0.87307796 12.5 3.3125 C15.63940244 7.17368122 16.97380309 9.76014897 16.59601784 14.79285908 C16.52227629 15.47118384 16.44853474 16.14950861 16.37255859 16.84838867 C16.31084661 17.58261897 16.24913464 18.31684927 16.1855526 19.07332897 C15.97752364 21.48869509 15.7384725 23.89996742 15.5 26.3125 C15.35318079 27.9793484 15.20862298 29.64639739 15.06622314 31.31362915 C14.59055201 36.79180234 14.06817797 42.26504476 13.5390625 47.73828125 C13.44443096 48.72166159 13.34979942 49.70504192 13.25230026 50.71822166 C12.75343206 55.89740764 12.2504512 61.0761752 11.74414062 66.25463867 C11.22319879 71.59206162 10.71750095 76.93082055 10.21494484 82.27000141 C9.82370745 86.39631964 9.42108716 90.5214698 9.01533127 94.64638329 C8.82363258 96.6159538 8.63627993 98.58595241 8.45338821 100.55636024 C8.19797293 103.29713188 7.92644191 106.03584934 7.65087891 108.7746582 C7.57907913 109.58448654 7.50727936 110.39431488 7.43330383 111.22868347 C6.99824268 115.37152962 6.56739684 118.3518149 3.5 121.3125 C0.61679083 122.03758429 -1.47257312 121.64888076 -4.5 121.3125 C-6.57221757 118.20417364 -6.8496457 116.97436504 -7.22192383 113.37451172 C-7.33179123 112.35157013 -7.44165863 111.32862854 -7.55485535 110.27468872 C-7.66694839 109.15021332 -7.77904144 108.02573792 -7.89453125 106.8671875 C-8.01931351 105.68027313 -8.14409576 104.49335876 -8.2726593 103.27047729 C-8.54482988 100.66838583 -8.8138337 98.0661832 -9.07769775 95.46325684 C-9.50777862 91.22223531 -9.95154418 86.98269951 -10.39599609 82.74316406 C-11.10512804 75.9603196 -11.79941315 69.17605777 -12.48411369 62.39070511 C-12.87682467 58.49914873 -13.27216958 54.60790409 -13.67407227 50.71728516 C-14.07239072 46.86120128 -14.4642145 43.00450747 -14.85154152 39.14730453 C-14.99724767 37.70645774 -15.14509033 36.265825 -15.29532433 34.82544327 C-17.90160423 9.77928565 -17.90160423 9.77928565 -14.8125 4.625 C-10.40606726 0.21856726 -6.07069722 0.01821209 0 0 Z " fill="#FFFFFF" transform="translate(561.5,86.6875)"/>
<path d="M0 0 C1.98 0 3.96 0 6 0 C6 92.73 6 185.46 6 281 C4.02 281 2.04 281 0 281 C0 188.27 0 95.54 0 0 Z " fill="#FFFFFF" transform="translate(1875,178)"/>
<path d="M0 0 C5.30564721 3.1391746 8.75573583 7.22482756 11 12.9375 C12.3901707 20.72245594 11.40992988 26.51413447 7.625 33.4375 C3.70064216 38.32553152 -2.28586305 40.85674709 -8.3828125 41.72265625 C-14.67901141 42.00660248 -19.81890972 40.00600994 -25.125 36.75 C-30.06120376 31.67667947 -31.63702404 27.01933618 -31.875 19.9375 C-31.64915077 13.43304214 -30.43665672 8.70885924 -25.94921875 3.9140625 C-18.87577898 -2.40999477 -8.72166602 -3.9155071 0 0 Z " fill="#FFFFFF" transform="translate(820.375,137.5625)"/>
</svg>
